<?xml version="1.0" encoding="utf-8"?>
<!-- Generator: Adobe Illustrator 18.0.0, SVG Export Plug-In . SVG Version: 6.00 Build 0)  -->
<!DOCTYPE svg PUBLIC "-//W3C//DTD SVG 1.1//EN" "http://www.w3.org/Graphics/SVG/1.1/DTD/svg11.dtd">
<svg version="1.1" id="Layer_4" xmlns="http://www.w3.org/2000/svg" xmlns:xlink="http://www.w3.org/1999/xlink" x="0px" y="0px"
	 width="536.9px" height="128px" viewBox="0 0 536.9 128" enable-background="new 0 0 536.9 128" xml:space="preserve">
<g>
	<path fill="#F6AB1A" d="M25.8,54.6c-0.7,0.4-1.8,0.7-3.3,0.7c-1.3,0-2.6-0.2-4-0.6c-1.3-0.4-2.5-1-3.4-1.7l-1.8,3.9
		c1,0.8,2.3,1.4,4,1.9c1.6,0.5,3.4,0.7,5.1,0.7c2,0,3.8-0.3,5.2-0.9c1.4-0.6,2.5-1.4,3.2-2.5c0.7-1.1,1.1-2.2,1.1-3.5
		c0-1.5-0.4-2.7-1.2-3.5C30,48.1,29.1,47.4,28,47c-1.1-0.4-2.5-0.8-4.2-1.2c-1.6-0.4-2.9-0.7-3.6-1.1C19.4,44.4,19,43.8,19,43
		c0-0.8,0.3-1.4,1-1.8c0.7-0.5,1.8-0.7,3.2-0.7c2.1,0,4.1,0.6,6.2,1.8l1.6-3.9c-1-0.6-2.2-1.1-3.6-1.5c-1.4-0.3-2.8-0.5-4.2-0.5
		c-2,0-3.8,0.3-5.2,0.9c-1.4,0.6-2.5,1.4-3.2,2.5c-0.7,1.1-1.1,2.2-1.1,3.5c0,1.5,0.4,2.7,1.2,3.6c0.8,0.9,1.7,1.5,2.8,1.9
		c1.1,0.4,2.5,0.8,4.2,1.2c1.1,0.3,2,0.5,2.6,0.7c0.6,0.2,1.2,0.5,1.6,0.8c0.4,0.4,0.6,0.8,0.6,1.3C26.8,53.6,26.5,54.2,25.8,54.6z"
		/>
	<path fill="#F6AB1A" d="M32.6,36.7v4.2h7.1V59h5.2V40.9H47c-0.2-1.4-0.4-2.8-0.6-4.2H32.6z"/>
	<path fill="#F6AB1A" d="M33,93.6l12.8-29.5H39l-9.1,21.1l-9-21.1h-5.5c3,7.2,5.5,14.6,7.7,22.1l3.2,7.5H33z"/>
	<path fill="#F6AB1A" d="M48.3,64.1v29.5h4.1c-0.8-9.9-1.6-19.7-2.5-29.5H48.3z"/>
	<path fill="#F6AB1A" d="M273.9,37.1v6.1c0.8-2,1.5-4.1,2.2-6.1H273.9z"/>
	<path fill="#F6AB1A" d="M248.8,68.2V49.3c-2,4.2-4.1,8.3-6.4,12.3c-2.1,3.7-4.3,7.4-6.4,11c0.6,6.3,2.8,11.4,6.5,15.1
		c1.8,1.8,3.8,3.2,6.2,4.2c2-3.4,4.1-6.8,6.1-10.2C250.7,79.7,248.8,75.1,248.8,68.2z"/>
	<path fill="#F6AB1A" d="M440.2,37.1h-7.4c2.2,4.2,4.7,8.3,7.4,12.3L440.2,37.1z"/>
	<path fill="#F6AB1A" d="M466.8,78.6V37.1h-13.1v29.1c0,0,0,0.1,0.1,0.1C457.9,70.6,462.3,74.8,466.8,78.6z"/>
	<polygon fill="#F6AB1A" points="491.9,93.5 504.9,93.5 504.9,47.7 523,47.7 523,37.1 473.8,37.1 473.8,47.7 491.9,47.7 	"/>
	<path fill="#00B4A8" d="M309.6,37.1h-9.9v22.5c0.1-0.3,0.3-0.5,0.4-0.8C303.6,51.6,306.8,44.4,309.6,37.1z"/>
	<path fill="#00B4A8" d="M13.5,64.1l9.5,22.1c-2.2-7.5-4.7-14.8-7.7-22.1H13.5z"/>
	<path fill="#00B4A8" d="M278.8,37.1h-2.7c-0.7,2.1-1.4,4.1-2.2,6.1v6.5v18.5c0,5.2-1.1,9-3.2,11.5c-2.2,2.4-5.3,3.7-9.4,3.7
		c-1.6,0-3-0.2-4.3-0.5c-0.8-0.2-1.6-0.6-2.4-1c-2,3.4-4,6.8-6.1,10.2c0.7,0.3,1.5,0.6,2.3,0.9c3,1,6.5,1.5,10.4,1.5
		c8.1,0,14.3-2.2,18.8-6.7c4.5-4.5,6.7-10.8,6.7-19.1V37.1H278.8z"/>
	<path fill="#00B4A8" d="M440.2,53.7l0-4.4c-2.7-4-5.2-8-7.4-12.3H430h-0.6l-20.8,35.1l-21.1-35.1h-2.1c7.9,15.8,18.7,30,29.9,43.9
		L428,59.6l0.1,33.9h12.3L440.2,53.7z"/>
	<path fill="#00B4A8" d="M453.8,66.2C453.8,66.2,453.7,66.1,453.8,66.2l-0.1,3.7v23.6h13.1V81.9v-3.3
		C462.3,74.8,457.9,70.6,453.8,66.2z"/>
	<path fill="#E54577" d="M78.8,36.7h-0.7V59h0.4C78.9,51.6,78.9,44.2,78.8,36.7z"/>
	<path fill="#E54577" d="M76.2,87.8c-0.9,0.6-2.4,0.9-4.3,0.9c-1.7,0-3.5-0.3-5.2-0.8c-1.7-0.6-3.3-1.3-4.5-2.2l-2.3,5.1
		c1.3,1,3.1,1.8,5.3,2.5c2.2,0.6,4.4,0.9,6.8,0.9c1.8,0,3.4-0.2,4.9-0.6c0-2.1,0.1-4.2,0.2-6.4C76.7,87.4,76.4,87.6,76.2,87.8z"/>
	<path fill="#E54577" d="M73.6,76.1c-2.2-0.5-3.8-1-4.8-1.5c-1.1-0.5-1.6-1.2-1.6-2.3c0-1,0.5-1.8,1.4-2.4c0.9-0.6,2.3-0.9,4.2-0.9
		c1.7,0,3.4,0.3,5.1,0.9c0.1-1.9,0.3-3.8,0.4-5.7c-1.8-0.4-3.6-0.6-5.4-0.6c-2.7,0-5,0.4-6.9,1.2c-1.9,0.8-3.3,1.9-4.2,3.3
		c-0.9,1.4-1.4,2.9-1.4,4.7c0,2,0.5,3.5,1.5,4.7c1,1.2,2.3,2,3.7,2.6c1.4,0.5,3.3,1.1,5.5,1.6c1.5,0.3,2.6,0.6,3.5,0.9
		c0.9,0.3,1.6,0.7,2.1,1.1c0.1,0.1,0.2,0.2,0.3,0.3c0.1-2.3,0.2-4.5,0.4-6.8C76.3,76.8,75,76.5,73.6,76.1z"/>
	<path fill="#E54577" d="M212.7,74.6c1,0.9,1.6,2,1.6,3.3c0,1.8-0.9,3.3-2.7,4.4c-1.8,1.1-4.5,1.7-8.2,1.7c-0.1,0-0.2,0-0.3,0
		c-1.8,3.4-3.6,6.8-5.4,10.2c1.8,0.2,3.7,0.3,5.6,0.3c5.2,0,9.5-0.8,13.1-2.3c3.6-1.6,6.3-3.7,8.1-6.3c1.8-2.7,2.7-5.6,2.7-8.8
		c0-3.8-1-6.7-2.9-8.9c-2-2.2-4.3-3.8-7.1-4.8c-0.6-0.2-1.3-0.5-2.1-0.7c-2,3.4-3.9,6.8-5.8,10.2C210.7,73.2,211.8,73.8,212.7,74.6z
		"/>
	<path fill="#E54577" d="M48.9,36.7h-2.5c0.2,1.4,0.4,2.8,0.6,4.2h2.5h2.6v-4.2H48.9z"/>
	<path fill="#E54577" d="M65.8,36.7h-5.1l-9.1,20.5L50.8,59h1h4.3l2-4.8h10.4l2,4.8h5.4L65.8,36.7z M59.7,50.3l3.5-8.5l3.5,8.5H59.7
		z"/>
	<path fill="#E54577" d="M52.4,64.1h-2.5c1,9.8,1.7,19.7,2.5,29.5h2.3h0.4V64.1H52.4z"/>
	<path fill="#E54577" d="M235.7,37.1v31.1v0.6c0,1.4,0.1,2.8,0.2,4.1c2.2-3.7,4.3-7.3,6.4-11c2.3-4,4.4-8.2,6.4-12.3v-6v-6.3H235.7z
		"/>
	<polygon fill="#761D58" points="105.9,59 111,59 111,40.9 118.2,40.9 118.2,36.7 98.7,36.7 98.7,40.9 105.9,40.9 	"/>
	<path fill="#761D58" d="M120.4,36.7v12.5c0,1.6,0.2,3.1,0.7,4.3c1.3-5.6,2.6-11.2,3.6-16.8H120.4z"/>
	<rect x="89" y="64.1" fill="#761D58" width="6.8" height="29.5"/>
	<path fill="#761D58" d="M112.5,87.1c-1.4-0.8-2.5-1.9-3.3-3.4c-0.8-1.4-1.2-3.1-1.2-4.9s0.4-3.5,1.2-4.9c0.8-1.4,1.9-2.6,3.3-3.4
		c1.4-0.8,3-1.2,4.7-1.2c0,0,0,0,0,0c0.4-1.9,0.9-3.9,1.4-5.8c-0.5,0-0.9-0.1-1.4-0.1c-3.1,0-5.8,0.7-8.3,2
		c-2.5,1.3-4.4,3.1-5.8,5.5S101,76,101,78.9s0.7,5.5,2.1,7.8c1.4,2.3,3.3,4.1,5.8,5.5c1.3,0.7,2.7,1.2,4.1,1.5c0.1-2,0.4-4,0.7-6
		C113.3,87.5,112.9,87.3,112.5,87.1z"/>
	<path fill="#761D58" d="M160,93.6h5.6V77.1c-2.1,5.2-4.2,10.4-6.3,15.6L160,93.6z"/>
	<path fill="#761D58" d="M92.9,51.9c1.5-0.6,2.6-1.6,3.4-2.8c0.8-1.2,1.2-2.6,1.2-4.3c0-1.7-0.4-3.1-1.2-4.3
		c-0.8-1.2-1.9-2.1-3.4-2.8c-1.5-0.7-3.2-1-5.1-1h-6.7h-2.3c0.1,7.4,0.1,14.9-0.3,22.3h2.3h2.4v-6.2h4.5h0.3l4.3,6.2h5.5L92.9,51.9z
		 M91,47.7c-0.8,0.7-2,1-3.5,1h-4.2v-7.8h4.2c1.6,0,2.7,0.3,3.5,1c0.8,0.7,1.2,1.6,1.2,2.9C92.3,46,91.9,47,91,47.7z"/>
	<g>
		<path fill="#761D58" d="M82.8,80.3c-0.9-1-1.9-1.8-3.1-2.3c-0.2-0.1-0.4-0.2-0.6-0.2c-0.5-0.2-1.1-0.4-1.7-0.6
			c-0.1,2.3-0.3,4.5-0.4,6.8c0.4,0.4,0.6,0.9,0.6,1.5c0,0.7-0.2,1.2-0.7,1.7c-0.1,2.1-0.1,4.2-0.2,6.4c0.7-0.2,1.4-0.4,2-0.7
			c0.1-0.1,0.2-0.1,0.3-0.2c1.7-0.8,3-1.8,3.9-3.1c0.9-1.4,1.4-2.9,1.4-4.6C84.4,83,83.8,81.4,82.8,80.3z"/>
		<path fill="#761D58" d="M81,71.4l2.1-5.2c-0.8-0.5-1.6-0.9-2.5-1.2c-0.7-0.3-1.4-0.5-2.2-0.7c0,0-0.1,0-0.1,0
			c-0.1,1.9-0.3,3.8-0.4,5.7c0.8,0.3,1.5,0.6,2.3,1C80.4,71.1,80.7,71.2,81,71.4z"/>
	</g>
	<g>
		<path fill="#761D58" d="M193.4,82.4c-3.3-1.1-6.2-2.5-8.6-4.3l-4.4,9.8c2.5,1.9,5.9,3.5,10,4.7c1.7,0.5,3.3,0.9,5,1.2
			c0.8,0.1,1.5,0.2,2.3,0.3c1.8-3.4,3.6-6.8,5.4-10.2c-0.8,0-1.6,0-2.4-0.1C198.3,83.7,195.8,83.2,193.4,82.4z"/>
		<path fill="#761D58" d="M224.4,40.8c-2.5-1.5-5.3-2.6-8.6-3.4c-3.4-0.9-7-1.3-10.6-1.3c-5.2,0-9.5,0.8-13.1,2.3
			c-3.6,1.6-6.2,3.7-8,6.3c-1.8,2.7-2.7,5.6-2.7,8.9c0,3.8,1,6.8,2.9,9c2,2.3,4.3,3.9,7.1,4.9c2.7,1,6.3,2,10.6,3.1
			c2,0.5,3.7,0.9,5.1,1.3c0.6,0.2,1.1,0.3,1.6,0.5c0.2,0.1,0.5,0.2,0.7,0.3c1.9-3.4,3.9-6.8,5.8-10.2c-0.8-0.3-1.6-0.5-2.5-0.8
			c-1.8-0.5-3.8-1-6-1.6c-4.1-0.9-7.2-1.8-9.2-2.8c-2-0.9-3-2.4-3-4.3c0-1.9,0.9-3.5,2.6-4.7c1.7-1.2,4.4-1.8,8.1-1.8
			c4.7,0,9.3,1.2,14,3.5c0.6,0.3,1.1,0.6,1.7,0.9l4-9.9C224.7,41,224.5,40.9,224.4,40.8z"/>
	</g>
	<path fill="#E24173" d="M363.2,37.1h-10.7l-20.8,35.1l-20-33.1l-1.2-1.9h-0.9c-2.8,7.4-6.1,14.6-9.5,21.7c-0.1,0.3-0.3,0.5-0.4,0.8
		v5.3v28.7H312V60.4l16.5,27.2h5.9L351,59.6l0.1,33.9h12.3L363.2,37.1z"/>
	<path fill="#E24173" d="M385.4,37.1h-2.8h-5.9v56.4H389V60.4l16.5,27.2h5.9l2.6-4.4l1.3-2.2C404.1,67.1,393.3,52.9,385.4,37.1z"/>
	<path fill="#F6AD1A" d="M150.8,52.9h4.5c2,0,3.7-0.3,5.1-1c1.5-0.6,2.6-1.6,3.4-2.8c0.8-1.2,1.2-2.6,1.2-4.3c0-1.7-0.4-3.1-1.2-4.3
		c-0.8-1.2-1.9-2.1-3.4-2.8c-1.5-0.7-3.2-1-5.1-1h-9.7V59h5.2V52.9z M150.8,40.9h4.2c1.6,0,2.7,0.3,3.5,1c0.8,0.7,1.2,1.6,1.2,2.9
		c0,1.2-0.4,2.2-1.2,2.9c-0.8,0.7-2,1-3.5,1h-4.2V40.9z"/>
	<path fill="#F6AD1A" d="M135.5,36.7V49c0,2.1-0.4,3.6-1.3,4.5c-0.9,1-2.1,1.4-3.7,1.4c-3.3,0-5-2-5-6v-4.1v-8.2h-0.9
		c-1,5.7-2.2,11.3-3.6,16.8c0.4,1.2,1,2.1,1.8,3c0.1,0.1,0.1,0.2,0.2,0.2c1.8,1.8,4.3,2.6,7.4,2.6c3.2,0,5.7-0.9,7.4-2.6
		c1.8-1.8,2.7-4.3,2.7-7.6V36.7H135.5z"/>
	<path fill="#F6AD1A" d="M115.7,91.2c0.1-1,0.3-2,0.4-2.9c-0.9-0.1-1.7-0.3-2.4-0.6c-0.3,2-0.5,4-0.7,6c0.8,0.2,1.6,0.3,2.4,0.4
		C115.5,93.1,115.6,92.1,115.7,91.2z"/>
	<path fill="#F6AD1A" d="M131.3,71c-1.4-2.3-3.3-4.1-5.8-5.5c-1.4-0.7-2.9-1.3-4.5-1.6c-0.8-0.2-1.6-0.3-2.4-0.3
		c-0.5,1.9-0.9,3.8-1.4,5.8c0.9,0,1.7,0.1,2.5,0.3c0.8,0.2,1.5,0.5,2.2,0.9c1.4,0.8,2.5,1.9,3.3,3.4c0.8,1.4,1.2,3.1,1.2,4.9
		s-0.4,3.5-1.2,4.9c-0.8,1.4-1.9,2.6-3.3,3.4c-1.4,0.8-3,1.2-4.7,1.2c-0.4,0-0.7,0-1-0.1c-0.1,1-0.3,2-0.4,2.9
		c-0.1,1-0.2,1.9-0.3,2.9c0.6,0,1.2,0.1,1.7,0.1c3.1,0,5.8-0.7,8.3-2c2.4-1.3,4.4-3.1,5.8-5.5c1.4-2.3,2.1-4.9,2.1-7.8
		S132.7,73.3,131.3,71z"/>
	<path fill="#F6AD1A" d="M158.9,64.1V82l-14.7-17.9h-5.7v29.5h6.8V75.7l12.3,15l1.7,2.1c2.2-5.2,4.2-10.4,6.3-15.6v-6.6v-6.4H158.9z
		"/>
</g>
</svg>
